<?xml version="1.0" encoding="UTF-8" standalone="no"?>
<svg
   height="1000"
   viewBox="0.333 0.667 200.5336 200.6689"
   width="1000"
   version="1.1"
   id="svg49"
   sodipodi:docname="android-auto-os-1.svg"
   inkscape:version="1.1.2 (b8e25be833, 2022-02-05)"
   xmlns:inkscape="http://www.inkscape.org/namespaces/inkscape"
   xmlns:sodipodi="http://sodipodi.sourceforge.net/DTD/sodipodi-0.dtd"
   xmlns="http://www.w3.org/2000/svg"
   xmlns:svg="http://www.w3.org/2000/svg">
  <defs
     id="defs53" />
  <sodipodi:namedview
     id="namedview51"
     pagecolor="#ffffff"
     bordercolor="#666666"
     borderopacity="1.0"
     inkscape:pageshadow="2"
     inkscape:pageopacity="0.0"
     inkscape:pagecheckerboard="0"
     showgrid="false"
     height="1000px"
     inkscape:zoom="0.72880595"
     inkscape:cx="534.43581"
     inkscape:cy="480.92362"
     inkscape:window-width="1920"
     inkscape:window-height="991"
     inkscape:window-x="-9"
     inkscape:window-y="-9"
     inkscape:window-maximized="1"
     inkscape:current-layer="svg49" />
  <linearGradient
     id="a"
     x1="177.74393"
     x2="459.52828"
     y1="250.81612"
     y2="410.84567"
     gradientUnits="userSpaceOnUse">
    <stop
       offset="0"
       stop-color="#1a237e"
       stop-opacity=".2"
       id="stop32" />
    <stop
       offset="1"
       stop-color="#1a237e"
       stop-opacity=".02"
       id="stop34" />
  </linearGradient>
  <g
     fill="none"
     fill-rule="evenodd"
     id="g47"
     transform="matrix(0.41118191,0,0,0.41118191,3.9014855,1.7927802)">
    <path
       d="m 32.333,416.667 c -17.68,0 -32,-14.32 -32,-32 0,-5.814 1.547,-11.28 4.267,-15.974 l 202.667,-352 C 212.787,7.12 223.133,0.667 235,0.667 c 11.867,0 22.213,6.453 27.733,16.026 l 202.667,352 c 2.72,4.694 4.267,10.16 4.267,15.974 0,17.68 -14.32,32 -32,32 z"
       fill="#03a9f4"
       id="path37" />
    <path
       d="M 235,150 V 416.667 H 501.667 Z"
       fill="url(#a)"
       id="path39"
       style="fill:url(#a)" />
    <path
       d="M 207.267,16.693 4.6,368.693 c -2.72,4.694 -4.267,10.16 -4.267,15.974 0,17.68 14.32,32 32,32 H 235 v -416 c -11.867,0 -22.213,6.453 -27.733,16.026 z"
       fill="#039be5"
       id="path41" />
    <path
       d="m 235,150 181.333,320 -10.666,10.667 -170.667,-64 -170.667,64 L 53.667,470 Z"
       fill="#f1f1f1"
       id="path43" />
    <path
       d="M 235,150 416.333,470 405.667,480.667 235,416.667"
       fill="#e1e1e1"
       id="path45" />
  </g>
</svg>
